<svg width="42" height="26" viewBox="0 0 42 26" fill="none" xmlns="http://www.w3.org/2000/svg">
<path d="M4.2 0C1.89328 0 0 1.89328 0 4.2V17.5612C0 17.7122 0.0065625 17.8533 0.02625 18.0075C0.0426563 18.1683 0.0721875 18.3258 0.105 18.48C0.190313 18.8803 0.324844 19.2609 0.49875 19.6087L0.525 19.635L2.4675 23.1C3.2025 24.36 4.58391 25.2 6.1425 25.2H10.08V23.52H6.1425C5.18766 23.52 4.38047 23.0081 3.9375 22.26L3.70125 21.84H38.2987L38.0625 22.26C37.6327 22.9786 36.7073 23.52 35.8575 23.52H31.92V25.2H35.8575C37.3537 25.2 38.7811 24.3895 39.5325 23.1L41.475 19.635L41.5012 19.6087C41.6752 19.2609 41.8097 18.8803 41.895 18.48C41.9278 18.3258 41.9573 18.1683 41.9737 18.0075C41.9934 17.8533 42 17.7122 42 17.5612V4.2C42 1.89328 40.1067 0 37.8 0H4.2ZM31.92 5.04H33.6V7.77L35.9625 6.405L36.8025 7.875L34.44 9.24L36.8025 10.605L35.9625 12.075L33.6 10.71V13.44H31.92V10.71L29.5575 12.075L28.7175 10.605L31.08 9.24L28.7175 7.875L29.5837 6.405L31.92 7.77V5.04ZM1.89 18.48H40.11C40.0641 18.6047 40.0378 18.7294 39.9787 18.8475L39.2437 20.16H2.75625L2.02125 18.8475C1.96219 18.7294 1.93594 18.6047 1.89 18.48Z" fill="#46475E"/>
</svg>
