<svg width="23" height="32" viewBox="0 0 23 32" fill="none" xmlns="http://www.w3.org/2000/svg">
<path d="M21.6545 16.6139C19.3019 8.877 12.3781 0.619812 12.0261 0.202627C11.9711 0.142438 11.9042 0.094365 11.8296 0.0614743C11.755 0.0285835 11.6744 0.0115967 11.5929 0.0115967C11.5114 0.0115967 11.4307 0.0285835 11.3562 0.0614743C11.2816 0.094365 11.2147 0.142438 11.1597 0.202627C10.8077 0.619812 3.88265 8.87581 1.52887 16.6139C1.0465 18.2008 0.740723 19.7688 0.740723 21.2397C0.740723 27.2225 5.60946 32.09 11.5923 32.09C17.5751 32.09 22.4415 27.2225 22.4415 21.2397C22.4427 19.7688 22.1369 18.202 21.6545 16.6139ZM11.5935 30.957C6.23524 30.957 1.87613 26.5979 1.87613 21.2408C1.87613 19.7866 2.19969 18.2151 2.71643 16.6151C4.77509 10.2447 10.0444 3.39315 11.5935 1.46722C13.1425 3.39315 18.4118 10.2447 20.4681 16.6151C20.9849 18.2163 21.3084 19.7866 21.3084 21.2408C21.3084 26.5979 16.9505 30.957 11.5935 30.957Z" fill="white"/>
<path d="M5.51097 16.6134C4.91837 18.1186 4.52252 19.6261 4.52252 20.9986C4.52252 22.8737 5.26742 24.6721 6.59334 25.998C7.91927 27.3239 9.71761 28.0688 11.5927 28.0688C13.4679 28.0688 15.2662 27.3239 16.5921 25.998C17.9181 24.6721 18.663 22.8737 18.663 20.9986C18.663 19.6261 18.2671 18.1186 17.6745 16.6134H5.51097Z" fill="white"/>
</svg>
