<svg width="28" height="28" viewBox="0 0 28 28" fill="none" xmlns="http://www.w3.org/2000/svg">
<path d="M13.9751 0C14.3457 0 14.7012 0.147237 14.9633 0.40932C15.2253 0.671403 15.3726 1.02686 15.3726 1.39751V2.79501C15.3726 3.16565 15.2253 3.52112 14.9633 3.7832C14.7012 4.04528 14.3457 4.19252 13.9751 4.19252C13.6044 4.19252 13.249 4.04528 12.9869 3.7832C12.7248 3.52112 12.5776 3.16565 12.5776 2.79501V1.39751C12.5776 1.02686 12.7248 0.671403 12.9869 0.40932C13.249 0.147237 13.6044 0 13.9751 0ZM3.90324 3.90324C4.16531 3.64124 4.5207 3.49407 4.89127 3.49407C5.26184 3.49407 5.61724 3.64124 5.87931 3.90324L7.27682 5.30074C7.53138 5.56432 7.67224 5.91733 7.66906 6.28375C7.66588 6.65017 7.5189 7.00068 7.25979 7.25979C7.00068 7.5189 6.65017 7.66588 6.28375 7.66906C5.91733 7.67224 5.56431 7.53138 5.30074 7.27682L3.90324 5.87931C3.64124 5.61724 3.49406 5.26184 3.49406 4.89127C3.49406 4.5207 3.64124 4.16531 3.90324 3.90324ZM24.0469 3.90324C24.3089 4.16531 24.4561 4.5207 24.4561 4.89127C24.4561 5.26184 24.3089 5.61724 24.0469 5.87931L22.6494 7.27682C22.5205 7.41029 22.3663 7.51676 22.1958 7.59C22.0253 7.66324 21.8419 7.70179 21.6563 7.70341C21.4708 7.70502 21.2867 7.66966 21.115 7.59939C20.9432 7.52912 20.7872 7.42535 20.656 7.29414C20.5248 7.16292 20.421 7.00689 20.3507 6.83514C20.2805 6.66339 20.2451 6.47937 20.2467 6.29381C20.2483 6.10825 20.2869 5.92487 20.3601 5.75437C20.4334 5.58387 20.5398 5.42966 20.6733 5.30074L22.0708 3.90324C22.3329 3.64124 22.6883 3.49407 23.0589 3.49407C23.4294 3.49407 23.7848 3.64124 24.0469 3.90324ZM0 13.9751C0 13.6044 0.147237 13.249 0.40932 12.9869C0.671403 12.7248 1.02686 12.5776 1.39751 12.5776H2.79501C3.16565 12.5776 3.52112 12.7248 3.7832 12.9869C4.04528 13.249 4.19252 13.6044 4.19252 13.9751C4.19252 14.3457 4.04528 14.7012 3.7832 14.9633C3.52112 15.2253 3.16565 15.3726 2.79501 15.3726H1.39751C1.02686 15.3726 0.671403 15.2253 0.40932 14.9633C0.147237 14.7012 0 14.3457 0 13.9751ZM23.7576 13.9751C23.7576 13.6044 23.9048 13.249 24.1669 12.9869C24.429 12.7248 24.7845 12.5776 25.1551 12.5776H26.5526C26.9233 12.5776 27.2787 12.7248 27.5408 12.9869C27.8029 13.249 27.9501 13.6044 27.9501 13.9751C27.9501 14.3457 27.8029 14.7012 27.5408 14.9633C27.2787 15.2253 26.9233 15.3726 26.5526 15.3726H25.1551C24.7845 15.3726 24.429 15.2253 24.1669 14.9633C23.9048 14.7012 23.7576 14.3457 23.7576 13.9751Z" fill="white"/>
<path d="M13.975 8.2272C12.4628 8.2272 11.0125 8.81857 9.94324 9.87122C8.87394 10.9239 8.27322 12.3516 8.27322 13.8402C8.27322 15.3289 8.87394 16.7566 9.94324 17.8092C11.0125 18.8619 12.4628 19.4533 13.975 19.4533C15.4873 19.4533 16.9375 18.8619 18.0068 17.8092C19.0761 16.7566 19.6769 15.3289 19.6769 13.8402C19.6769 12.3516 19.0761 10.9239 18.0068 9.87122C16.9375 8.81857 15.4873 8.2272 13.975 8.2272ZM5.4223 13.8402C5.42251 12.3623 5.81789 10.9105 6.56868 9.63075C7.31948 8.35095 8.39924 7.28824 9.69946 6.54943C10.9997 5.81063 12.4745 5.42174 13.9758 5.42188C15.4771 5.42201 16.9519 5.81114 18.2519 6.55018C19.552 7.28921 20.6316 8.35211 21.3822 9.63203C22.1327 10.912 22.5278 12.3638 22.5278 13.8417C22.5277 15.3196 22.1325 16.7714 21.3819 18.0513C20.6312 19.3312 19.5515 20.394 18.2514 21.133V23.663C18.2514 24.7795 17.8009 25.8503 16.9989 26.6398C16.1969 27.4293 15.1092 27.8728 13.975 27.8728C12.8409 27.8728 11.7532 27.4293 10.9512 26.6398C10.1492 25.8503 9.69867 24.7795 9.69867 23.663V21.133C8.39812 20.3941 7.31817 19.3311 6.56747 18.0509C5.81677 16.7707 5.4218 15.3184 5.4223 13.8402ZM12.5496 22.1433V23.663C12.5496 24.0352 12.6998 24.3921 12.9671 24.6553C13.2344 24.9185 13.597 25.0663 13.975 25.0663C14.3531 25.0663 14.7157 24.9185 14.983 24.6553C15.2503 24.3921 15.4005 24.0352 15.4005 23.663V22.1433C14.4568 22.2995 13.4933 22.2995 12.5496 22.1433Z" fill="white"/>
</svg>
