<svg width="60" height="60" viewBox="0 0 60 60" fill="none" xmlns="http://www.w3.org/2000/svg">
<g filter="url(#filter0_d_118_62)">
<path d="M32.2737 8.91309C32.0921 8.91313 31.9146 8.96735 31.7639 9.0688C31.6133 9.17025 31.4963 9.31433 31.4279 9.48262C31.3596 9.6509 31.343 9.83574 31.3802 10.0135C31.4175 10.1913 31.5069 10.3539 31.6371 10.4806C35.5804 14.4239 35.5804 20.7679 31.6371 24.7112C31.5495 24.7954 31.4795 24.8961 31.4313 25.0076C31.3831 25.1192 31.3576 25.2392 31.3564 25.3606C31.3552 25.4821 31.3782 25.6026 31.4241 25.7151C31.47 25.8275 31.5379 25.9297 31.6238 26.0156C31.7097 26.1015 31.8119 26.1694 31.9243 26.2153C32.0368 26.2612 32.1573 26.2843 32.2788 26.283C32.4003 26.2818 32.5203 26.2563 32.6318 26.2081C32.7433 26.1599 32.844 26.09 32.9282 26.0023C37.5675 21.363 37.5675 13.8288 32.9282 9.1895C32.8431 9.10203 32.7413 9.03251 32.6289 8.98503C32.5165 8.93756 32.3957 8.91309 32.2737 8.91309ZM29.7165 11.4685C29.5345 11.4682 29.3565 11.5223 29.2055 11.6238C29.0544 11.7254 28.9371 11.8697 28.8687 12.0384C28.8003 12.2071 28.7838 12.3923 28.8215 12.5704C28.8591 12.7485 28.9491 12.9113 29.0798 13.0378C31.5562 15.5142 31.5562 19.5867 29.0798 22.0631C28.9922 22.1472 28.9223 22.248 28.8741 22.3595C28.8259 22.471 28.8004 22.591 28.7992 22.7124C28.7979 22.8339 28.821 22.9544 28.8669 23.0669C28.9128 23.1793 28.9807 23.2815 29.0666 23.3674C29.1525 23.4533 29.2547 23.5212 29.3671 23.5671C29.4796 23.613 29.6001 23.6361 29.7216 23.6348C29.843 23.6336 29.963 23.6081 30.0745 23.5599C30.186 23.5117 30.2868 23.4418 30.3709 23.3542C33.5554 20.1697 33.5554 14.9312 30.3709 11.7467C30.286 11.6589 30.1843 11.5891 30.0719 11.5413C29.9595 11.4935 29.8386 11.4688 29.7165 11.4685ZM27.0683 14.1167C26.8868 14.1171 26.7096 14.1716 26.5592 14.2732C26.4088 14.3748 26.2921 14.5189 26.224 14.6871C26.1558 14.8553 26.1394 15.04 26.1767 15.2176C26.214 15.3952 26.3034 15.5577 26.4334 15.6842C27.5581 16.8088 27.5581 18.4739 26.4334 19.5985C26.3458 19.6827 26.2759 19.7835 26.2277 19.895C26.1795 20.0065 26.154 20.1265 26.1528 20.2479C26.1515 20.3694 26.1746 20.4899 26.2205 20.6024C26.2664 20.7148 26.3343 20.817 26.4202 20.9029C26.5061 20.9888 26.6083 21.0567 26.7207 21.1026C26.8332 21.1485 26.9537 21.1716 27.0752 21.1703C27.1966 21.1691 27.3166 21.1436 27.4281 21.0954C27.5396 21.0472 27.6404 20.9773 27.7245 20.8896C29.5217 19.0925 29.5217 16.1903 27.7245 14.3931C27.6393 14.3055 27.5372 14.2358 27.4245 14.1883C27.3117 14.1408 27.1906 14.1165 27.0683 14.1167ZM16.3044 16.6829C15.7565 16.6829 15.3913 17.0481 15.3913 17.5959V34.9437H17.2174V17.5959C17.2174 17.0481 16.8522 16.6829 16.3044 16.6829ZM23.6087 16.6829C23.0609 16.6829 22.6957 17.0481 22.6957 17.5959V34.9437H24.5218V17.5959C24.5218 17.0481 24.1565 16.6829 23.6087 16.6829ZM13.5652 36.7698C12.0131 36.7698 10.8261 37.9568 10.8261 39.509V44.9872C10.8261 46.5394 12.0131 47.7264 13.5652 47.7264H46.4348C47.987 47.7264 49.1739 46.5394 49.1739 44.9872V39.509C49.1739 37.9568 47.987 36.7698 46.4348 36.7698H13.5652ZM16.3044 41.335C16.8522 41.335 17.2174 41.7003 17.2174 42.2481C17.2174 42.7959 16.8522 43.1611 16.3044 43.1611C15.7565 43.1611 15.3913 42.7959 15.3913 42.2481C15.3913 41.7003 15.7565 41.335 16.3044 41.335ZM19.9565 41.335C20.5044 41.335 20.8696 41.7003 20.8696 42.2481C20.8696 42.7959 20.5044 43.1611 19.9565 43.1611C19.4087 43.1611 19.0435 42.7959 19.0435 42.2481C19.0435 41.7003 19.4087 41.335 19.9565 41.335ZM23.6087 41.335C24.1565 41.335 24.5218 41.7003 24.5218 42.2481C24.5218 42.7959 24.1565 43.1611 23.6087 43.1611C23.0609 43.1611 22.6957 42.7959 22.6957 42.2481C22.6957 41.7003 23.0609 41.335 23.6087 41.335ZM27.2609 41.335C27.8087 41.335 28.1739 41.7003 28.1739 42.2481C28.1739 42.7959 27.8087 43.1611 27.2609 43.1611C26.7131 43.1611 26.3478 42.7959 26.3478 42.2481C26.3478 41.7003 26.7131 41.335 27.2609 41.335ZM30.9131 41.335C31.4609 41.335 31.8261 41.7003 31.8261 42.2481C31.8261 42.7959 31.4609 43.1611 30.9131 43.1611C30.3652 43.1611 30 42.7959 30 42.2481C30 41.7003 30.3652 41.335 30.9131 41.335Z" fill="#46475E"/>
</g>
<defs>
<filter id="filter0_d_118_62" x="0.826111" y="0.913086" width="58.3478" height="58.8132" filterUnits="userSpaceOnUse" color-interpolation-filters="sRGB">
<feFlood flood-opacity="0" result="BackgroundImageFix"/>
<feColorMatrix in="SourceAlpha" type="matrix" values="0 0 0 0 0 0 0 0 0 0 0 0 0 0 0 0 0 0 127 0" result="hardAlpha"/>
<feOffset dy="2"/>
<feGaussianBlur stdDeviation="5"/>
<feComposite in2="hardAlpha" operator="out"/>
<feColorMatrix type="matrix" values="0 0 0 0 0 0 0 0 0 0 0 0 0 0 0 0 0 0 0.25 0"/>
<feBlend mode="normal" in2="BackgroundImageFix" result="effect1_dropShadow_118_62"/>
<feBlend mode="normal" in="SourceGraphic" in2="effect1_dropShadow_118_62" result="shape"/>
</filter>
</defs>
</svg>
