<svg width="16" height="32" viewBox="0 0 16 32" fill="none" xmlns="http://www.w3.org/2000/svg">
<path d="M8 1.79214e-08C9.32796 -0.000110164 10.6056 0.507841 11.571 1.41969C12.5364 2.33154 13.1164 3.57819 13.192 4.904L13.2 5.2L13.2016 17.9232L13.3296 18.0336C14.8206 19.3629 15.7592 21.2029 15.96 23.1904L15.9904 23.5936L16 24C16.0002 25.3181 15.6748 26.6158 15.0526 27.7778C14.4303 28.9398 13.5307 29.9301 12.4335 30.6606C11.3363 31.391 10.0756 31.8391 8.76353 31.9649C7.45145 32.0907 6.1286 31.8904 4.91261 31.3817C3.69662 30.873 2.62516 30.0717 1.79349 29.0491C0.961816 28.0265 0.395702 26.8142 0.145476 25.5201C-0.104749 24.226 -0.0313319 22.8901 0.3592 21.6311C0.749732 20.3722 1.44528 19.2293 2.384 18.304L2.672 18.032L2.7984 17.9232L2.8 5.2C2.79974 3.92209 3.27005 2.68882 4.12117 1.73559C4.97229 0.782359 6.14462 0.175913 7.4144 0.032L7.7056 0.0080002L8 1.79214e-08ZM8 2.4C7.29704 2.40006 6.61982 2.66453 6.10287 3.14088C5.58591 3.61722 5.26704 4.27059 5.2096 4.9712L5.2 5.2V19.1104L4.7056 19.4704C3.76101 20.1575 3.05491 21.1227 2.68614 22.2311C2.31737 23.3394 2.30438 24.5352 2.64901 25.6513C2.99363 26.7674 3.67861 27.7477 4.60806 28.4551C5.53751 29.1626 6.66491 29.5617 7.83243 29.5966C8.99996 29.6315 10.1492 29.3004 11.1192 28.6497C12.0893 27.9991 12.8316 27.0614 13.2422 25.9679C13.6529 24.8744 13.7113 23.6799 13.4094 22.5515C13.1075 21.4232 12.4603 20.4175 11.5584 19.6752L11.2944 19.472L10.8032 19.112L10.8 5.2C10.8 4.45739 10.505 3.7452 9.9799 3.2201C9.4548 2.695 8.74261 2.4 8 2.4Z" fill="white"/>
<path d="M8 9.33337C8.31813 9.33337 8.62323 9.46161 8.84819 9.68988C9.07314 9.91815 9.19952 10.2277 9.19952 10.5506V20.069C10.1112 20.3598 10.8902 20.9723 11.3954 21.7955C11.9006 22.6187 12.0987 23.5983 11.9537 24.5568C11.8087 25.5154 11.3303 26.3896 10.6051 27.0212C9.87984 27.6528 8.95571 28 8 28C7.04429 28 6.12016 27.6528 5.39493 27.0212C4.66969 26.3896 4.19128 25.5154 4.0463 24.5568C3.90132 23.5983 4.09936 22.6187 4.60457 21.7955C5.10978 20.9723 5.88876 20.3598 6.80048 20.069V10.5506C6.80048 10.2277 6.92686 9.91815 7.15181 9.68988C7.37677 9.46161 7.68187 9.33337 8 9.33337Z" fill="white"/>
</svg>
